<?xml version="1.0" standalone="no"?>
<!DOCTYPE svg PUBLIC "-//W3C//DTD SVG 20010904//EN"
 "http://www.w3.org/TR/2001/REC-SVG-20010904/DTD/svg10.dtd">
<svg version="1.0" xmlns="http://www.w3.org/2000/svg"
 width="232.000000pt" height="218.000000pt" viewBox="0 0 232.000000 218.000000"
 preserveAspectRatio="xMidYMid meet">

<g transform="translate(0.000000,218.000000) scale(0.100000,-0.100000)"
fill="#000000" stroke="none">
<path d="M0 1090 l0 -1090 1160 0 1160 0 0 1090 0 1090 -1160 0 -1160 0 0
-1090z m1384 855 c269 -68 490 -247 601 -487 115 -250 108 -552 -18 -803 -84
-168 -230 -316 -396 -400 -98 -49 -131 -57 -158 -40 -23 15 -23 17 -23 208 -1
197 -9 247 -44 286 -15 17 -11 18 66 30 202 31 297 111 327 276 23 122 7 217
-47 285 -29 35 -30 39 -25 121 6 91 -8 166 -33 176 -21 8 -110 -24 -178 -64
l-59 -34 -71 12 c-90 16 -242 16 -326 0 l-66 -12 -74 39 c-96 51 -157 69 -176
50 -23 -23 -36 -121 -25 -184 10 -52 9 -58 -14 -88 -43 -57 -55 -99 -55 -200
0 -233 92 -340 323 -377 39 -7 74 -13 76 -15 2 -2 -6 -15 -18 -29 -11 -15 -23
-42 -27 -61 -5 -28 -12 -35 -43 -44 -95 -26 -162 -3 -226 80 -53 70 -83 91
-139 97 -37 5 -46 3 -46 -10 0 -8 10 -21 22 -30 44 -28 76 -68 108 -133 49
-98 99 -124 236 -124 l84 0 0 -115 c0 -103 -2 -117 -21 -136 -25 -25 -34 -22
-164 41 -508 248 -663 919 -318 1375 128 169 332 291 543 325 41 6 82 13 90
15 39 10 233 -9 314 -30z m-799 -1205 c3 -5 1 -10 -4 -10 -6 0 -11 5 -11 10 0
6 2 10 4 10 3 0 8 -4 11 -10z m42 -46 c-9 -9 -28 6 -21 18 4 6 10 6 17 -1 6
-6 8 -13 4 -17z m41 -42 c2 -7 -3 -12 -12 -12 -9 0 -16 7 -16 16 0 17 22 14
28 -4z m49 -68 c-9 -10 -38 16 -31 28 4 6 13 4 22 -6 9 -8 13 -19 9 -22z m60
-30 c-3 -4 -14 -3 -24 0 -15 6 -15 8 -3 16 16 10 39 -4 27 -16z m151 4 c-3 -7
-11 -13 -18 -13 -7 0 -15 6 -17 13 -3 7 4 12 17 12 13 0 20 -5 18 -12z m-68
-8 c0 -5 -9 -10 -20 -10 -11 0 -20 5 -20 10 0 6 9 10 20 10 11 0 20 -4 20 -10z"/>
</g>
</svg>
